<svg width="512" height="512" xmlns="http://www.w3.org/2000/svg" xmlns:xlink="http://www.w3.org/1999/xlink"><defs><linearGradient x1="50%" y1="0%" x2="50%" y2="100%" id="e"><stop stop-color="#43A5A2" stop-opacity="0" offset="0%"/><stop stop-color="#439FA1" stop-opacity=".1" offset="100%"/></linearGradient><linearGradient x1="50%" y1="0%" x2="50%" y2="100%" id="f"><stop stop-color="#43A5A1" offset="0%"/><stop stop-color="#4295A3" offset="100%"/></linearGradient><filter x="-8.1%" y="-8.1%" width="116.3%" height="116.3%" filterUnits="objectBoundingBox" id="a"><feOffset dy="7" in="SourceAlpha" result="shadowOffsetOuter1"/><feGaussianBlur stdDeviation="6" in="shadowOffsetOuter1" result="shadowBlurOuter1"/><feColorMatrix values="0 0 0 0 0 0 0 0 0 0 0 0 0 0 0 0 0 0 0.35 0" in="shadowBlurOuter1" result="shadowMatrixOuter1"/><feMerge><feMergeNode in="shadowMatrixOuter1"/><feMergeNode in="SourceGraphic"/></feMerge></filter><filter x="-.3%" y="-.4%" width="100.6%" height="100.8%" filterUnits="objectBoundingBox" id="h"><feGaussianBlur stdDeviation=".5" in="SourceAlpha" result="shadowBlurInner1"/><feOffset dy="-1" in="shadowBlurInner1" result="shadowOffsetInner1"/><feComposite in="shadowOffsetInner1" in2="SourceAlpha" operator="arithmetic" k2="-1" k3="1" result="shadowInnerInner1"/><feColorMatrix values="0 0 0 0 0 0 0 0 0 0 0 0 0 0 0 0 0 0 0.2 0" in="shadowInnerInner1"/></filter><path id="d" d="M.5 0h448v448H.5z"/><path d="M30.454 254C11.297 227.415 0 195.37 0 160 0 70.936 71.634 0 160 0s160 70.936 160 160c0 35.37-11.297 67.415-30.453 94L212.5 130l-7 13 7.5 35-53-91-32.5 55.5L135 178l-28-47.5L30.454 254z" id="g"/><circle id="b" cx="224" cy="224" r="224"/></defs><g fill="none" fill-rule="evenodd"><g filter="url(#a)" transform="translate(32 23)"><mask id="c" fill="#fff"><use xlink:href="#b"/></mask><g mask="url(#c)"><g transform="translate(-.5)"><use fill="#FFF" xlink:href="#d"/><use fill="url(#e)" xlink:href="#d"/></g></g></g><g transform="translate(96 87)"><circle cx="160" cy="160" r="160"/><use fill="url(#f)" xlink:href="#g"/><use fill="#000" filter="url(#h)" xlink:href="#g"/></g></g></svg>